<svg width="30" height="30" viewBox="0 0 30 30" fill="none" xmlns="http://www.w3.org/2000/svg">
<rect x="30" width="30" height="30" rx="15" transform="rotate(90 30 0)" fill="black"/>
<path d="M14.9999 21.207L19.7069 16.5C19.7998 16.4072 19.8734 16.297 19.9236 16.1757C19.9739 16.0543 19.9998 15.9243 19.9998 15.793C19.9998 15.6617 19.9739 15.5317 19.9236 15.4104C19.8734 15.2891 19.7998 15.1789 19.7069 15.086C19.6141 14.9932 19.5038 14.9195 19.3825 14.8693C19.2612 14.819 19.1312 14.7932 18.9999 14.7932C18.8686 14.7932 18.7386 14.819 18.6173 14.8693C18.496 14.9195 18.3858 14.9932 18.2929 15.086L15.9999 17.379V9.79303C15.9999 9.52781 15.8945 9.27346 15.707 9.08592C15.5195 8.89839 15.2651 8.79303 14.9999 8.79303C14.7347 8.79303 14.4803 8.89839 14.2928 9.08592C14.1053 9.27346 13.9999 9.52781 13.9999 9.79303V17.379L11.7069 15.086C11.6143 14.9928 11.5041 14.9189 11.3828 14.8684C11.2614 14.818 11.1313 14.792 10.9999 14.792C10.8685 14.792 10.7384 14.818 10.6171 14.8684C10.4957 14.9189 10.3856 14.9928 10.2929 15.086C10.1054 15.2736 10.0001 15.5279 10.0001 15.793C10.0001 16.0582 10.1054 16.3125 10.2929 16.5L14.9999 21.207Z" fill="white"/>
</svg>
