<svg width="35" height="35" viewBox="0 0 35 35" fill="none" xmlns="http://www.w3.org/2000/svg">
<rect width="34.2661" height="34.2661" rx="17.133" fill="black"/>
<path d="M23.2729 13.5883L15.9287 11.6204C15.7838 11.5816 15.6327 11.5717 15.484 11.5912C15.3353 11.6108 15.192 11.6595 15.0621 11.7345C14.9322 11.8094 14.8184 11.9093 14.7271 12.0283C14.6358 12.1472 14.5688 12.283 14.53 12.4279C14.4912 12.5728 14.4813 12.7239 14.5008 12.8726C14.5204 13.0212 14.5691 13.1646 14.6441 13.2945C14.7191 13.4244 14.8189 13.5382 14.9379 13.6295C15.0569 13.7208 15.1927 13.7878 15.3375 13.8266L18.9152 14.7853L11.4113 19.1176C11.149 19.2691 10.9576 19.5186 10.8792 19.8112C10.8008 20.1038 10.8418 20.4156 10.9933 20.6779C11.1447 20.9403 11.3942 21.1317 11.6868 21.2101C11.9794 21.2885 12.2912 21.2474 12.5535 21.096L20.0574 16.7636L19.0988 20.3413C19.0595 20.4862 19.0493 20.6374 19.0687 20.7862C19.088 20.9351 19.1367 21.0786 19.2117 21.2086C19.2868 21.3386 19.3868 21.4524 19.506 21.5436C19.6252 21.6348 19.7612 21.7016 19.9063 21.74C20.1989 21.8184 20.5106 21.7773 20.7729 21.6259C21.0352 21.4744 21.2266 21.225 21.305 20.9325L23.2729 13.5883Z" fill="white"/>
</svg>
